<?xml version="1.0" encoding="UTF-8"?>
<svg version="1.1" xmlns="http://www.w3.org/2000/svg" width="225" height="225">
<path d="M0 0 C74.25 0 148.5 0 225 0 C225 74.25 225 148.5 225 225 C150.75 225 76.5 225 0 225 C0 150.75 0 76.5 0 0 Z " fill="#000000" transform="translate(0,0)"/>
<path d="M0 0 C5.76871407 1.93126514 11.96755741 1.9145332 17.5703125 -0.53515625 C18.6015625 -1.05078125 19.6328125 -1.56640625 20.6953125 -2.09765625 C30.35828396 -4.44506695 38.30231627 -3.70679722 47.046875 1.1015625 C50.74187373 3.61394364 53.09178277 6.28633024 55.6953125 9.90234375 C55.09203125 10.37542969 54.48875 10.84851563 53.8671875 11.3359375 C47.33420208 16.74145608 43.58203436 21.24458745 42.25390625 29.71875 C41.75906941 37.79406616 44.09782558 44.28036692 48.6953125 50.90234375 C51.82203563 53.66235244 55.07751861 55.83503295 58.6953125 57.90234375 C57.03270447 69.58323095 47.21685311 81.30076677 38.37109375 88.7109375 C34.08541302 91.75786669 30.99608781 92.42373149 25.6953125 91.90234375 C24.36569734 91.27050183 23.05411951 90.59997462 21.7578125 89.90234375 C14.82743385 86.57386001 5.23781784 86.40538176 -2.0546875 88.80859375 C-3.50276786 89.5125217 -4.94028629 90.23883722 -6.36328125 90.9921875 C-9.94602263 92.6718228 -12.3711969 92.46427098 -16.3046875 91.90234375 C-26.72376991 87.66130825 -33.12757452 77.35755009 -38.3046875 67.90234375 C-38.67335938 67.28101563 -39.04203125 66.6596875 -39.421875 66.01953125 C-46.86503779 52.69107695 -48.7553993 35.46750057 -45.609375 20.62109375 C-44.70823345 18.1675655 -43.69615978 16.11054976 -42.3046875 13.90234375 C-41.86898437 13.19207031 -41.43328125 12.48179688 -40.984375 11.75 C-31.08965843 -2.76765791 -15.98595494 -6.54818271 0 0 Z " fill="#FDFDFD" transform="translate(104.3046875,77.09765625)"/>
<path d="M0 0 C0.52656606 8.16177393 -0.71769535 14.605947 -5.6953125 21.26953125 C-10.3213004 26.31691481 -15.36328114 29.2843856 -22 31 C-23.32 31 -24.64 31 -26 31 C-26.82549656 22.74503444 -24.65273826 16.8551615 -20 10 C-14.56819458 4.42059117 -7.93687659 0 0 0 Z " fill="#F7F7F7" transform="translate(134,45)"/>
</svg>
